PathFileType	4	(X/Y/Z)	C:/Users/beibeiliu/ov580/test_trc/capture2\sequence.25_training_dense_right.trc
DataRate	CameraRate	NumFrames	NumMarkers	Units	OrigDataRate	OrigDataStartFrame	OrigNumFrames
120	120	18	19	mm	120	1	343
Frame#	Time	ThumbCMC			ThumbMCP			ThumbIP			ThumbTip			IndexMCP			IndexPIP			IndexTip			MiddleMCP			MiddlePIP			MiddleTip			RingMCP			RingPIP			RingTip			PinkyMCP			PinkyPIP			PinkyTip			BackHand1			BackHand2			BackHand3	
		X0	Y0	Z0	X1	Y1	Z1	X2	Y2	Z2	X3	Y3	Z3	X4	Y4	Z4	X5	Y5	Z5	X6	Y6	Z6	X7	Y7	Z7	X8	Y8	Z8	X9	Y9	Z9	X10	Y10	Z10	X11	Y11	Z11	X12	Y12	Z12	X13	Y13	Z13	X14	Y14	Z14	X15	Y15	Z15	X16	Y16	Z16	X17	Y17	Z17	X18	Y18	Z18	
0	0	117.046	26.0989	30.1317	95.6302	13.3078	10.9793	84.2056	6.52182	-13.2074	75.8671	1.21987	-32.6486	129.799	32.1262	-44.1849	125.56	22.9026	-71.4639	122.018	18.0549	-92.2455	158.719	31.7748	-48.5519	156.845	24.1838	-73.3988	162.363	16.385	-101.22	178.166	27.2273	-42.1454	183.928	20.4875	-66.9233	190.95	11.3649	-92.6111	197.775	19.1598	-26.535	210.294	13.9444	-43.1125	225.466	15.5594	-57.7813	173.753	41.8469	6.89279	170.547	48.6452	37.3687	141.573	48.0689	19.8043	
1	0.00833333	114.882	25.6983	25.2926	99.6838	12.7899	12.0833	85.9621	6.4186	-14.6844	73.4407	0.727582	-29.9939	129.749	30.9957	-43.8503	123.362	23.9033	-70.8903	125.786	15.8374	-95.6815	154.629	31.1517	-47.535	155.969	22.5931	-77.1434	161.465	15.7599	-103.002	175.61	26.8312	-44.5374	187.292	19.7521	-63.2787	188.721	10.7543	-92.0508	196.507	18.3518	-25.798	210.561	13.4408	-43.9923	222.712	14.4558	-62.9189	173.11	40.8919	7.09267	170.491	47.2057	37.0889	140.912	48.4712	16.5581	
2	0.0166667	113.632	26.0266	30.6506	100.041	12.2707	9.73827	84.5207	6.45871	-13.5888	76.5483	1.13628	-31.992	130.224	30.9814	-44.1969	123.077	24.6356	-67.1259	126.779	16.9769	-92.6882	154.816	30.0396	-52.5003	155.427	22.4501	-76.624	161.542	14.5285	-104.182	178.249	26.2826	-42.7792	182.995	19.4784	-63.6614	188.918	9.48122	-90.4866	197.062	19.267	-27.2515	209.314	12.1576	-41.7992	221.42	13.9919	-59.3074	174.203	40.775	6.05813	173.941	47.4228	34.5281	143.001	48.8152	18.2222	
3	0.025	112.664	25.7026	27.3078	97.2884	12.6519	12.099	84.9288	6.38529	-15.2436	73.8387	0.318702	-32.747	127.987	31.2069	-42.6363	122.86	22.9335	-71.5538	127.627	16.0948	-94.6983	158.517	30.2798	-50.622	159.236	21.5471	-77.7971	163.5	13.217	-102.442	176.704	27.3233	-45.1071	184.583	19.231	-68.1361	187.348	8.84189	-91.746	196.396	19.2119	-26.5651	207.16	12.5742	-41.0826	224.075	13.842	-62.9341	171.321	42.5299	5.15192	172.065	45.5021	36.9466	139.354	47.3145	14.2203	
4	0.0333333	111.864	25.8931	25.651	98.354	12.3234	10.8371	84.3145	6.43952	-13.8862	74.513	-0.174755	-33.7101	129.305	30.3115	-46.9062	122.621	23.7489	-68.9733	127.536	15.1198	-94.0109	153.731	30.2116	-48.0382	156.894	19.7695	-78.0155	159.95	12.9217	-101.475	175.616	25.4779	-40.655	181.601	17.6376	-69.3978	187.436	7.73901	-93.925	197.045	17.5453	-24.077	209.423	12.4231	-45.8655	224.054	11.7808	-63.9355	171.914	40.9096	8.03309	175.284	46.3044	36.3832	144.7	46.5801	18.058	
5	0.0416667	112.534	24.6852	24.5988	100.133	11.4454	10.125	86.1705	5.47475	-9.76477	75.7026	-0.184047	-30.5924	126.283	29.2007	-45.1479	126.387	21.893	-71.6512	120.897	13.9265	-96.6956	156.067	29.1505	-48.3906	159.009	20.3521	-74.8851	159.051	11.7293	-100.017	174.91	25.0527	-44.5616	184.428	17.8967	-66.3501	184.855	7.19252	-90.2441	199.231	16.6669	-27.37	206.143	11.8537	-43.4206	225.7	12.7141	-64.2488	176.226	38.9428	5.43876	172.672	44.3285	33.215	144.542	45.574	13.9266	
6	0.05	114.676	22.995	25.9778	96.2872	11.677	11.8927	81.0695	5.56821	-11.9393	71.7403	-1.10336	-29.3938	127.21	28.2175	-45.214	120.734	21.0339	-71.3344	125.965	12.8319	-95.5446	152.762	28.4237	-49.6556	155.826	18.9023	-74.8787	158.915	9.54675	-101.731	178.634	24.0671	-43.958	185.025	15.9624	-66.2764	187.961	5.30903	-89.9213	195.452	15.8974	-25.7602	210.156	9.03612	-44.0769	225.091	10.5702	-64.5835	172.158	39.8918	7.80552	169.939	43.7056	35.3735	141.867	44.2074	14.7267	
7	0.0583333	113.076	22.1665	30.2777	96.5647	10.3571	11.4406	82.5377	4.26158	-11.1782	71.8988	-1.42362	-31.4593	125.087	27.5187	-45.4124	123.824	18.3221	-72.9266	123.397	10.8146	-97.7931	154.732	25.6024	-51.0493	155.844	16.6018	-76.1899	161.676	6.91099	-105.384	179.236	21.3297	-44.2701	186.114	13.3026	-67.1348	185.206	3.80126	-90.0743	195.371	14.8653	-24.1757	206.035	8.59266	-41.7264	224.624	10.2225	-61.24	171.752	39.161	3.39078	170.39	43.5412	37.1801	139.259	44.2998	17.4666	
8	0.0666667	116.137	20.8828	25.2117	96.813	9.26336	11.7317	85.0801	3.30589	-9.73101	72.9661	-2.91731	-29.2065	127.662	25.5057	-46.7442	123.046	18.6418	-71.5015	125.583	11.0646	-93.4857	155.732	24.9823	-49.8217	157.037	14.3064	-78.1983	158.607	6.67898	-99.5651	175.825	21.5046	-40.7781	182.707	12.7303	-64.6618	187.067	0.541199	-92.5365	197.49	13.4021	-25.2849	206.436	6.65332	-44.566	224.657	6.1263	-58.6181	176.449	37.5985	5.34973	174.351	41.2838	34.3376	143.343	42.2965	18.449	
9	0.075	113.858	21.5248	30.0201	96.7346	7.78415	11.282	83.9122	2.73377	-9.67196	72.8609	-3.05286	-31.0938	130.15	25.1135	-46.6488	122.194	17.8599	-67.7358	124.759	7.88924	-95.5742	152.844	24.068	-52.4279	156.669	13.2663	-77.8118	157.713	5.76064	-100.4	177.086	20.1433	-40.6268	181.811	11.7009	-64.6896	185.332	-0.1653	-90.7936	199.736	11.6459	-24.5477	207.745	5.66787	-43.5544	221.15	6.53882	-62.3242	171.469	34.2767	7.79565	174.597	39.0336	33.4104	145.678	42.9336	19.1207	
10	0.0833333	116.8	20.5375	26.7188	95.0684	8.32861	9.10302	81.1906	1.28914	-11.3366	73.8815	-4.95229	-32.6318	128.366	24.71	-43.0121	122.096	15.5538	-71.7104	128.049	8.3981	-93.6377	155.449	21.7538	-51.4014	159.182	13.2743	-74.2471	159.979	3.03605	-100.507	178.972	18.1624	-44.2674	183.245	10.32	-65.6346	185.726	-1.47994	-90.7042	200.161	9.42767	-24.6409	207.469	4.19826	-43.8505	223.311	4.3535	-65.4714	172.051	33.7063	9.15887	173.539	40.1123	36.7857	144.824	39.6706	19.4136	
11	0.0916667	115.53	19.6724	30.7739	100.845	7.46657	10.5492	83.2826	1.18583	-15.1945	72.3459	-4.52231	-34.6338	126.882	23.5294	-45.5769	124.826	15.6251	-71.6443	125.646	6.03752	-96.188	153.191	21.9182	-48.6602	157.952	12.1167	-76.207	157.19	2.70585	-101.732	178.301	17.514	-43.9592	184.179	8.39603	-65.5079	184.455	-4.16717	-92.7152	196.862	9.34288	-29.6877	209.935	2.81674	-46.4144	224.62	1.1393	-63.6794	175.141	32.2508	3.84248	173.608	37.8799	34.8988	141.687	39.0843	14.7899	
12	0.1	113.531	19.9204	29.5239	99.728	7.36285	10.0457	85.0706	1.45024	-10.424	74.4269	-3.22591	-30.9986	126.267	23.9995	-47.9269	125.303	14.966	-71.4262	122.96	7.08035	-92.0457	153.428	20.9355	-53.7329	159.898	9.11144	-78.1608	160.328	-0.320613	-101.533	177.306	16.2396	-45.4247	185.687	5.9354	-68.7041	183.13	-4.35176	-92.933	199.35	8.3197	-28.3925	207.551	1.80464	-45.8485	221.718	0.253501	-64.9298	173.823	33.6523	4.76671	173.805	35.9295	34.1208	142.666	41.0512	18.2174	
13	0.108333	117.911	18.7434	26.7623	98.8273	6.59089	9.5293	86.6106	2.10682	-12.4149	74.5824	-3.26993	-29.5541	130.504	23.0689	-45.082	126.654	15.1383	-71.2316	124.161	4.87455	-97.3514	158.605	20.8195	-48.982	159.796	10.4855	-74.4263	161.52	-1.90515	-103.714	180.36	14.8806	-45.8684	179.986	6.62601	-66.9069	185.248	-4.82205	-89.2479	199.447	7.08896	-24.6844	209.51	-0.31685	-46.3067	219.278	0.119846	-62.6855	173.553	32.2089	8.05765	174.557	35.6392	33.1319	142.44	40.7791	18.461	
14	0.116667	115.92	18.5885	27.0165	95.6867	7.29792	11.8967	85.1439	2.55826	-11.9763	72.943	-2.05782	-35.0347	127.632	24.1242	-48.27	126.24	14.0367	-73.0541	123.101	5.57043	-94.4866	154.084	20.1546	-50.6725	159.98	10.1306	-73.5334	159.809	-2.29567	-102.373	180.532	14.2569	-43.9481	183.093	4.87485	-69.9252	183.281	-7.7241	-93.6699	197.463	5.85396	-25.478	210.053	-0.307535	-41.8402	222.422	-0.626939	-65.0225	177.111	30.2506	7.12219	172.973	35.6702	35.2977	143.747	37.842	15.4242	
15	0.125	114.44	20.5133	26.8858	97.8637	8.12012	10.9187	83.5219	4.3133	-10.9892	74.4878	-0.414188	-31.2286	127.345	25.1037	-46.8464	123.06	14.8766	-72.3851	121.537	6.29714	-94.4012	155.458	19.6351	-52.3101	155.18	9.34319	-77.4117	156.766	-1.18432	-100.886	175.771	14.7927	-45.3133	185.328	5.30028	-65.2663	184.789	-8.2001	-91.9751	197.998	5.18702	-25.8202	208.617	-1.79781	-42.7964	221.063	-1.80702	-63.8153	178.976	30.6036	8.57729	177.805	34.5798	33.8643	144.892	38.2429	19.5256	
16	0.133333	118.016	19.7389	28.4315	96.1938	9.92321	10.4153	85.6239	5.64688	-14.7242	73.6527	1.27312	-33.5871	127.793	25.6147	-47.2387	121.971	16.5585	-70.4991	124.862	4.81366	-95.9114	154.532	21.9962	-48.8164	154.88	10.6926	-74.3915	159.928	-2.8083	-99.1505	175.518	14.452	-40.4668	181.191	3.38674	-68.1986	180.888	-9.05855	-93.0956	197.128	4.1668	-23.2631	206.731	-3.53755	-46.6174	219.887	-4.17409	-66.1551	177.386	30.1829	9.49421	178.018	33.6147	38.0071	146.647	37.7381	21.2382	
17	0.141667	115.457	22.0421	27.6685	99.1259	10.2129	7.7451	82.8401	7.78431	-10.8864	73.7659	4.78917	-30.3029	130.66	26.844	-47.1731	125.435	17.6026	-70.6471	124.549	5.93791	-92.4162	156.82	21.2312	-50.9868	155.939	10.1608	-77.1697	153.267	-1.77833	-101.326	174.353	14.903	-43.9483	181.36	1.81395	-69.8688	176.816	-8.50257	-91.0829	195.515	4.1927	-28.3417	206.097	-3.89661	-47.4842	221.33	-4.69432	-63.2737	179.146	29.1206	9.60778	178.258	32.1111	40.3368	144.621	38.7602	21.7405	
